<mxfile host="Electron" modified="2024-03-14T11:06:59.025Z" agent="Mozilla/5.0 (X11; Linux x86_64) AppleWebKit/537.36 (KHTML, like Gecko) draw.io/24.0.4 Chrome/120.0.6099.109 Electron/28.1.0 Safari/537.36" etag="S4islZQXIS38R-sZaVGX" version="24.0.4" type="device">
  <diagram id="C5RBs43oDa-KdzZeNtuy" name="Complete">
    <mxGraphModel dx="1434" dy="-326" grid="1" gridSize="10" guides="1" tooltips="1" connect="1" arrows="1" fold="1" page="1" pageScale="1" pageWidth="827" pageHeight="1169" math="0" shadow="0">
      <root>
        <mxCell id="WIyWlLk6GJQsqaUBKTNV-0" />
        <mxCell id="WIyWlLk6GJQsqaUBKTNV-1" parent="WIyWlLk6GJQsqaUBKTNV-0" />
        <mxCell id="GHtbHk_-lFLC-_fpbAAs-61" style="edgeStyle=orthogonalEdgeStyle;rounded=0;orthogonalLoop=1;jettySize=auto;html=1;" parent="WIyWlLk6GJQsqaUBKTNV-1" source="GHtbHk_-lFLC-_fpbAAs-62" target="GHtbHk_-lFLC-_fpbAAs-64" edge="1">
          <mxGeometry relative="1" as="geometry">
            <mxPoint x="159.32999999999998" y="2202.5" as="sourcePoint" />
            <mxPoint x="159.32999999999998" y="2242.5" as="targetPoint" />
          </mxGeometry>
        </mxCell>
        <mxCell id="GHtbHk_-lFLC-_fpbAAs-62" value="NOW - CU_TIMESTAMP &amp;lt;&amp;nbsp;&lt;div&gt;TIME_OUT&lt;/div&gt;" style="shape=hexagon;perimeter=hexagonPerimeter2;whiteSpace=wrap;html=1;fixedSize=1;fillColor=#fff2cc;strokeColor=#d6b656;" parent="WIyWlLk6GJQsqaUBKTNV-1" vertex="1">
          <mxGeometry x="120" y="1992.5" width="210" height="40" as="geometry" />
        </mxCell>
        <mxCell id="GHtbHk_-lFLC-_fpbAAs-63" style="edgeStyle=orthogonalEdgeStyle;rounded=0;orthogonalLoop=1;jettySize=auto;html=1;" parent="WIyWlLk6GJQsqaUBKTNV-1" source="GHtbHk_-lFLC-_fpbAAs-64" target="GHtbHk_-lFLC-_fpbAAs-76" edge="1">
          <mxGeometry relative="1" as="geometry" />
        </mxCell>
        <mxCell id="GHtbHk_-lFLC-_fpbAAs-64" value="NOW - CONTROLLER_TIMESTAMP&lt;div&gt;&amp;nbsp;&amp;lt; TIME_OUT&lt;/div&gt;" style="shape=hexagon;perimeter=hexagonPerimeter2;whiteSpace=wrap;html=1;fixedSize=1;fillColor=#fff2cc;strokeColor=#d6b656;" parent="WIyWlLk6GJQsqaUBKTNV-1" vertex="1">
          <mxGeometry x="110" y="2062.5" width="230" height="40" as="geometry" />
        </mxCell>
        <mxCell id="GHtbHk_-lFLC-_fpbAAs-65" value="Transition to emergency state" style="rounded=1;whiteSpace=wrap;html=1;fillColor=#f8cecc;strokeColor=#b85450;" parent="WIyWlLk6GJQsqaUBKTNV-1" vertex="1">
          <mxGeometry x="390" y="1982.5" width="120" height="50" as="geometry" />
        </mxCell>
        <mxCell id="GHtbHk_-lFLC-_fpbAAs-66" style="edgeStyle=orthogonalEdgeStyle;rounded=0;orthogonalLoop=1;jettySize=auto;html=1;entryX=0.5;entryY=0;entryDx=0;entryDy=0;" parent="WIyWlLk6GJQsqaUBKTNV-1" source="GHtbHk_-lFLC-_fpbAAs-68" target="A1pyDdMk8up2wRGtz6jO-1" edge="1">
          <mxGeometry relative="1" as="geometry">
            <mxPoint x="225" y="1824" as="targetPoint" />
          </mxGeometry>
        </mxCell>
        <mxCell id="GHtbHk_-lFLC-_fpbAAs-67" style="edgeStyle=orthogonalEdgeStyle;rounded=0;orthogonalLoop=1;jettySize=auto;html=1;fillColor=#f8cecc;strokeColor=#b85450;exitX=1;exitY=0.5;exitDx=0;exitDy=0;entryX=0;entryY=0.5;entryDx=0;entryDy=0;" parent="WIyWlLk6GJQsqaUBKTNV-1" source="GHtbHk_-lFLC-_fpbAAs-68" target="GHtbHk_-lFLC-_fpbAAs-83" edge="1">
          <mxGeometry relative="1" as="geometry">
            <Array as="points">
              <mxPoint x="330" y="1765" />
              <mxPoint x="330" y="1765" />
            </Array>
          </mxGeometry>
        </mxCell>
        <mxCell id="A1pyDdMk8up2wRGtz6jO-6" value="No" style="edgeLabel;html=1;align=center;verticalAlign=middle;resizable=0;points=[];" parent="GHtbHk_-lFLC-_fpbAAs-67" vertex="1" connectable="0">
          <mxGeometry x="-0.3736" y="-1" relative="1" as="geometry">
            <mxPoint x="-16" y="9" as="offset" />
          </mxGeometry>
        </mxCell>
        <mxCell id="GHtbHk_-lFLC-_fpbAAs-68" value="AS Status == AS READY ||&amp;nbsp;&lt;br&gt;&lt;span style=&quot;background-color: initial;&quot;&gt;AS Status == AS Driving&lt;/span&gt;" style="shape=hexagon;perimeter=hexagonPerimeter2;whiteSpace=wrap;html=1;fixedSize=1;fillColor=#fff2cc;strokeColor=#d6b656;" parent="WIyWlLk6GJQsqaUBKTNV-1" vertex="1">
          <mxGeometry x="140" y="1742.5" width="170" height="45" as="geometry" />
        </mxCell>
        <mxCell id="GHtbHk_-lFLC-_fpbAAs-69" style="edgeStyle=orthogonalEdgeStyle;rounded=0;orthogonalLoop=1;jettySize=auto;html=1;exitX=0.5;exitY=1;exitDx=0;exitDy=0;" parent="WIyWlLk6GJQsqaUBKTNV-1" edge="1">
          <mxGeometry relative="1" as="geometry">
            <mxPoint x="225" y="2265" as="sourcePoint" />
            <mxPoint x="225" y="2265" as="targetPoint" />
          </mxGeometry>
        </mxCell>
        <mxCell id="GHtbHk_-lFLC-_fpbAAs-71" style="edgeStyle=orthogonalEdgeStyle;rounded=0;orthogonalLoop=1;jettySize=auto;html=1;jumpStyle=line;fillColor=#f8cecc;strokeColor=#b85450;entryX=0;entryY=0.5;entryDx=0;entryDy=0;" parent="WIyWlLk6GJQsqaUBKTNV-1" source="GHtbHk_-lFLC-_fpbAAs-74" target="GHtbHk_-lFLC-_fpbAAs-83" edge="1">
          <mxGeometry relative="1" as="geometry">
            <mxPoint x="363.05" y="1803.75" as="sourcePoint" />
            <mxPoint x="405" y="1840" as="targetPoint" />
            <Array as="points">
              <mxPoint x="360" y="1945" />
              <mxPoint x="360" y="1765" />
            </Array>
          </mxGeometry>
        </mxCell>
        <mxCell id="A1pyDdMk8up2wRGtz6jO-5" value="No" style="edgeLabel;html=1;align=center;verticalAlign=middle;resizable=0;points=[];" parent="GHtbHk_-lFLC-_fpbAAs-71" vertex="1" connectable="0">
          <mxGeometry x="-0.9093" relative="1" as="geometry">
            <mxPoint y="10" as="offset" />
          </mxGeometry>
        </mxCell>
        <mxCell id="GHtbHk_-lFLC-_fpbAAs-73" style="edgeStyle=orthogonalEdgeStyle;rounded=0;orthogonalLoop=1;jettySize=auto;html=1;" parent="WIyWlLk6GJQsqaUBKTNV-1" source="GHtbHk_-lFLC-_fpbAAs-74" target="GHtbHk_-lFLC-_fpbAAs-62" edge="1">
          <mxGeometry relative="1" as="geometry" />
        </mxCell>
        <mxCell id="GHtbHk_-lFLC-_fpbAAs-74" value="NOW - STEER_TIMESTAMP &amp;lt; TIME_OUT" style="shape=hexagon;perimeter=hexagonPerimeter2;whiteSpace=wrap;html=1;fixedSize=1;fillColor=#fff2cc;strokeColor=#d6b656;" parent="WIyWlLk6GJQsqaUBKTNV-1" vertex="1">
          <mxGeometry x="120" y="1925" width="210" height="40" as="geometry" />
        </mxCell>
        <mxCell id="GHtbHk_-lFLC-_fpbAAs-75" style="edgeStyle=orthogonalEdgeStyle;rounded=0;orthogonalLoop=1;jettySize=auto;html=1;" parent="WIyWlLk6GJQsqaUBKTNV-1" source="GHtbHk_-lFLC-_fpbAAs-76" target="GHtbHk_-lFLC-_fpbAAs-89" edge="1">
          <mxGeometry relative="1" as="geometry" />
        </mxCell>
        <mxCell id="GHtbHk_-lFLC-_fpbAAs-76" value="Emergency Signal?" style="shape=hexagon;perimeter=hexagonPerimeter2;whiteSpace=wrap;html=1;fixedSize=1;fillColor=#fff2cc;strokeColor=#d6b656;" parent="WIyWlLk6GJQsqaUBKTNV-1" vertex="1">
          <mxGeometry x="119.99999999999999" y="2150" width="210" height="40" as="geometry" />
        </mxCell>
        <mxCell id="GHtbHk_-lFLC-_fpbAAs-77" style="rounded=0;orthogonalLoop=1;jettySize=auto;html=1;entryX=1;entryY=0.75;entryDx=0;entryDy=0;dashed=1;endArrow=none;endFill=0;exitX=0;exitY=0.672;exitDx=0;exitDy=0;exitPerimeter=0;" parent="WIyWlLk6GJQsqaUBKTNV-1" source="GHtbHk_-lFLC-_fpbAAs-79" target="GHtbHk_-lFLC-_fpbAAs-64" edge="1">
          <mxGeometry relative="1" as="geometry">
            <mxPoint x="350" y="2130" as="sourcePoint" />
          </mxGeometry>
        </mxCell>
        <mxCell id="GHtbHk_-lFLC-_fpbAAs-78" style="rounded=0;orthogonalLoop=1;jettySize=auto;html=1;entryX=1;entryY=0.75;entryDx=0;entryDy=0;dashed=1;endArrow=none;endFill=0;exitX=-0.008;exitY=0.184;exitDx=0;exitDy=0;exitPerimeter=0;" parent="WIyWlLk6GJQsqaUBKTNV-1" source="GHtbHk_-lFLC-_fpbAAs-79" target="GHtbHk_-lFLC-_fpbAAs-62" edge="1">
          <mxGeometry relative="1" as="geometry">
            <mxPoint x="330" y="2050" as="sourcePoint" />
          </mxGeometry>
        </mxCell>
        <mxCell id="GHtbHk_-lFLC-_fpbAAs-79" value="&lt;div style=&quot;font-size: 10px;&quot;&gt;&lt;br&gt;&lt;/div&gt;&lt;div style=&quot;font-size: 10px;&quot;&gt;&lt;div&gt;&lt;font style=&quot;font-size: 12px;&quot;&gt;&lt;b&gt;Label:&lt;/b&gt;&lt;/font&gt;&lt;br&gt;&lt;/div&gt;&lt;div&gt;&lt;span style=&quot;background-color: initial;&quot;&gt;STEER = Steering Actuator&lt;/span&gt;&lt;/div&gt;&lt;div&gt;CU = Computing Unit&lt;/div&gt;&lt;div&gt;CONTOLLER = TS Controler&lt;/div&gt;&lt;div&gt;&lt;br&gt;&lt;/div&gt;&lt;/div&gt;&lt;div style=&quot;font-size: 10px;&quot;&gt;Check if there was a timeout.&lt;br&gt;&lt;/div&gt;&lt;div style=&quot;font-size: 10px;&quot;&gt;NOW = Current Time&lt;/div&gt;&lt;div style=&quot;font-size: 10px;&quot;&gt;&amp;lt;Component&amp;gt;_Timestamp = The time when a CAN signal from &amp;lt;component&amp;gt; was received&lt;br style=&quot;font-size: 10px;&quot;&gt;&lt;/div&gt;" style="shape=note;size=20;whiteSpace=wrap;html=1;fontSize=10;" parent="WIyWlLk6GJQsqaUBKTNV-1" vertex="1">
          <mxGeometry x="390" y="2050" width="130" height="170" as="geometry" />
        </mxCell>
        <mxCell id="GHtbHk_-lFLC-_fpbAAs-80" style="edgeStyle=orthogonalEdgeStyle;rounded=0;orthogonalLoop=1;jettySize=auto;html=1;" parent="WIyWlLk6GJQsqaUBKTNV-1" source="GHtbHk_-lFLC-_fpbAAs-81" target="GHtbHk_-lFLC-_fpbAAs-68" edge="1">
          <mxGeometry relative="1" as="geometry" />
        </mxCell>
        <mxCell id="GHtbHk_-lFLC-_fpbAAs-81" value="Vehicle Ready" style="rounded=1;whiteSpace=wrap;html=1;" parent="WIyWlLk6GJQsqaUBKTNV-1" vertex="1">
          <mxGeometry x="165" y="1545" width="120" height="50" as="geometry" />
        </mxCell>
        <mxCell id="GHtbHk_-lFLC-_fpbAAs-82" style="edgeStyle=orthogonalEdgeStyle;rounded=0;orthogonalLoop=1;jettySize=auto;html=1;" parent="WIyWlLk6GJQsqaUBKTNV-1" source="GHtbHk_-lFLC-_fpbAAs-83" target="GHtbHk_-lFLC-_fpbAAs-85" edge="1">
          <mxGeometry relative="1" as="geometry" />
        </mxCell>
        <mxCell id="GHtbHk_-lFLC-_fpbAAs-83" value="Open SDC" style="rounded=1;whiteSpace=wrap;html=1;" parent="WIyWlLk6GJQsqaUBKTNV-1" vertex="1">
          <mxGeometry x="390" y="1742.5" width="120" height="45" as="geometry" />
        </mxCell>
        <mxCell id="GHtbHk_-lFLC-_fpbAAs-84" style="edgeStyle=orthogonalEdgeStyle;rounded=0;orthogonalLoop=1;jettySize=auto;html=1;" parent="WIyWlLk6GJQsqaUBKTNV-1" source="GHtbHk_-lFLC-_fpbAAs-85" target="GHtbHk_-lFLC-_fpbAAs-87" edge="1">
          <mxGeometry relative="1" as="geometry" />
        </mxCell>
        <mxCell id="GHtbHk_-lFLC-_fpbAAs-85" value="Turn Buzzer ON" style="rounded=1;whiteSpace=wrap;html=1;" parent="WIyWlLk6GJQsqaUBKTNV-1" vertex="1">
          <mxGeometry x="390" y="1822.5" width="120" height="42.5" as="geometry" />
        </mxCell>
        <mxCell id="GHtbHk_-lFLC-_fpbAAs-86" style="edgeStyle=orthogonalEdgeStyle;rounded=0;orthogonalLoop=1;jettySize=auto;html=1;" parent="WIyWlLk6GJQsqaUBKTNV-1" source="GHtbHk_-lFLC-_fpbAAs-87" target="GHtbHk_-lFLC-_fpbAAs-65" edge="1">
          <mxGeometry relative="1" as="geometry" />
        </mxCell>
        <mxCell id="GHtbHk_-lFLC-_fpbAAs-87" value="Update Lights (blue, flashing)" style="rounded=1;whiteSpace=wrap;html=1;" parent="WIyWlLk6GJQsqaUBKTNV-1" vertex="1">
          <mxGeometry x="390" y="1895" width="120" height="60" as="geometry" />
        </mxCell>
        <mxCell id="GHtbHk_-lFLC-_fpbAAs-88" style="edgeStyle=orthogonalEdgeStyle;rounded=0;orthogonalLoop=1;jettySize=auto;html=1;entryX=0;entryY=0.5;entryDx=0;entryDy=0;" parent="WIyWlLk6GJQsqaUBKTNV-1" source="GHtbHk_-lFLC-_fpbAAs-89" target="GHtbHk_-lFLC-_fpbAAs-81" edge="1">
          <mxGeometry relative="1" as="geometry">
            <Array as="points">
              <mxPoint x="225" y="2280" />
              <mxPoint x="90" y="2280" />
              <mxPoint x="90" y="1570" />
            </Array>
          </mxGeometry>
        </mxCell>
        <mxCell id="GHtbHk_-lFLC-_fpbAAs-89" value="Toggle Watchdog" style="rounded=1;whiteSpace=wrap;html=1;fontSize=12;glass=0;strokeWidth=1;shadow=0;" parent="WIyWlLk6GJQsqaUBKTNV-1" vertex="1">
          <mxGeometry x="164.99999999999997" y="2220" width="120" height="40" as="geometry" />
        </mxCell>
        <mxCell id="GHtbHk_-lFLC-_fpbAAs-95" style="edgeStyle=orthogonalEdgeStyle;rounded=0;orthogonalLoop=1;jettySize=auto;html=1;entryX=0;entryY=0.5;entryDx=0;entryDy=0;fillColor=#f8cecc;strokeColor=#b85450;" parent="WIyWlLk6GJQsqaUBKTNV-1" source="GHtbHk_-lFLC-_fpbAAs-96" target="GHtbHk_-lFLC-_fpbAAs-108" edge="1">
          <mxGeometry relative="1" as="geometry">
            <mxPoint x="390" y="1662.5" as="targetPoint" />
          </mxGeometry>
        </mxCell>
        <mxCell id="A1pyDdMk8up2wRGtz6jO-7" value="No" style="edgeLabel;html=1;align=center;verticalAlign=middle;resizable=0;points=[];" parent="GHtbHk_-lFLC-_fpbAAs-95" vertex="1" connectable="0">
          <mxGeometry x="-0.2486" y="-1" relative="1" as="geometry">
            <mxPoint x="-20" y="7" as="offset" />
          </mxGeometry>
        </mxCell>
        <mxCell id="GHtbHk_-lFLC-_fpbAAs-96" value="SDC Closed?" style="shape=hexagon;perimeter=hexagonPerimeter2;whiteSpace=wrap;html=1;fixedSize=1;fillColor=#fff2cc;strokeColor=#d6b656;" parent="WIyWlLk6GJQsqaUBKTNV-1" vertex="1">
          <mxGeometry x="140" y="1640" width="170" height="45" as="geometry" />
        </mxCell>
        <mxCell id="A1pyDdMk8up2wRGtz6jO-3" style="rounded=0;orthogonalLoop=1;jettySize=auto;html=1;entryX=1;entryY=0.75;entryDx=0;entryDy=0;dashed=1;endArrow=none;endFill=0;exitX=0;exitY=0.5;exitDx=0;exitDy=0;exitPerimeter=0;" parent="WIyWlLk6GJQsqaUBKTNV-1" source="GHtbHk_-lFLC-_fpbAAs-103" target="GHtbHk_-lFLC-_fpbAAs-76" edge="1">
          <mxGeometry relative="1" as="geometry" />
        </mxCell>
        <mxCell id="GHtbHk_-lFLC-_fpbAAs-103" value="&lt;div style=&quot;font-size: 10px;&quot;&gt;CAN Emergency signal from RES or CU&lt;/div&gt;" style="shape=note;size=9;whiteSpace=wrap;html=1;fontSize=10;" parent="WIyWlLk6GJQsqaUBKTNV-1" vertex="1">
          <mxGeometry x="390" y="2230" width="130" height="50" as="geometry" />
        </mxCell>
        <mxCell id="GHtbHk_-lFLC-_fpbAAs-106" style="rounded=0;orthogonalLoop=1;jettySize=auto;html=1;exitX=1;exitY=0.75;exitDx=0;exitDy=0;entryX=-0.004;entryY=-0.015;entryDx=0;entryDy=0;entryPerimeter=0;dashed=1;endArrow=none;endFill=0;" parent="WIyWlLk6GJQsqaUBKTNV-1" source="GHtbHk_-lFLC-_fpbAAs-74" target="GHtbHk_-lFLC-_fpbAAs-79" edge="1">
          <mxGeometry relative="1" as="geometry" />
        </mxCell>
        <mxCell id="GHtbHk_-lFLC-_fpbAAs-110" style="edgeStyle=orthogonalEdgeStyle;rounded=0;orthogonalLoop=1;jettySize=auto;html=1;entryX=1;entryY=0.5;entryDx=0;entryDy=0;fillColor=#f8cecc;strokeColor=#b85450;exitX=1;exitY=0.5;exitDx=0;exitDy=0;" parent="WIyWlLk6GJQsqaUBKTNV-1" source="GHtbHk_-lFLC-_fpbAAs-108" target="GHtbHk_-lFLC-_fpbAAs-109" edge="1">
          <mxGeometry relative="1" as="geometry" />
        </mxCell>
        <mxCell id="GHtbHk_-lFLC-_fpbAAs-113" style="edgeStyle=orthogonalEdgeStyle;rounded=0;orthogonalLoop=1;jettySize=auto;html=1;entryX=0.5;entryY=0;entryDx=0;entryDy=0;" parent="WIyWlLk6GJQsqaUBKTNV-1" source="GHtbHk_-lFLC-_fpbAAs-108" target="GHtbHk_-lFLC-_fpbAAs-83" edge="1">
          <mxGeometry relative="1" as="geometry" />
        </mxCell>
        <mxCell id="GHtbHk_-lFLC-_fpbAAs-108" value="BP3 &amp;lt; 50 bar ||&amp;nbsp;&lt;div&gt;BP4 &amp;lt; 50 bar&lt;/div&gt;" style="shape=hexagon;perimeter=hexagonPerimeter2;whiteSpace=wrap;html=1;fixedSize=1;fillColor=#fff2cc;strokeColor=#d6b656;" parent="WIyWlLk6GJQsqaUBKTNV-1" vertex="1">
          <mxGeometry x="390" y="1640" width="120" height="45" as="geometry" />
        </mxCell>
        <mxCell id="GHtbHk_-lFLC-_fpbAAs-109" value="Stop Monitoring" style="rounded=1;whiteSpace=wrap;html=1;fillColor=#f8cecc;strokeColor=#b85450;" parent="WIyWlLk6GJQsqaUBKTNV-1" vertex="1">
          <mxGeometry x="390" y="1545" width="120" height="50" as="geometry" />
        </mxCell>
        <mxCell id="A1pyDdMk8up2wRGtz6jO-2" style="edgeStyle=orthogonalEdgeStyle;rounded=0;orthogonalLoop=1;jettySize=auto;html=1;entryX=0;entryY=0.5;entryDx=0;entryDy=0;fillColor=#f8cecc;strokeColor=#b85450;" parent="WIyWlLk6GJQsqaUBKTNV-1" source="A1pyDdMk8up2wRGtz6jO-1" target="GHtbHk_-lFLC-_fpbAAs-83" edge="1">
          <mxGeometry relative="1" as="geometry" />
        </mxCell>
        <mxCell id="A1pyDdMk8up2wRGtz6jO-4" value="No" style="edgeLabel;html=1;align=center;verticalAlign=middle;resizable=0;points=[];" parent="A1pyDdMk8up2wRGtz6jO-2" vertex="1" connectable="0">
          <mxGeometry x="-0.8799" y="-1" relative="1" as="geometry">
            <mxPoint y="10" as="offset" />
          </mxGeometry>
        </mxCell>
        <mxCell id="PdksBVGcvtITfAz_eM2A-0" style="edgeStyle=orthogonalEdgeStyle;rounded=0;orthogonalLoop=1;jettySize=auto;html=1;entryX=0.5;entryY=0;entryDx=0;entryDy=0;" parent="WIyWlLk6GJQsqaUBKTNV-1" source="A1pyDdMk8up2wRGtz6jO-1" target="GHtbHk_-lFLC-_fpbAAs-74" edge="1">
          <mxGeometry relative="1" as="geometry" />
        </mxCell>
        <mxCell id="A1pyDdMk8up2wRGtz6jO-1" value="BP1 &amp;gt; 6 bar &amp;amp;&amp;amp; BP2 &amp;gt; 6 bar" style="shape=hexagon;perimeter=hexagonPerimeter2;whiteSpace=wrap;html=1;fixedSize=1;fillColor=#fff2cc;strokeColor=#d6b656;" parent="WIyWlLk6GJQsqaUBKTNV-1" vertex="1">
          <mxGeometry x="120" y="1834" width="210" height="40" as="geometry" />
        </mxCell>
        <mxCell id="GHtbHk_-lFLC-_fpbAAs-90" style="edgeStyle=orthogonalEdgeStyle;rounded=0;orthogonalLoop=1;jettySize=auto;html=1;jumpStyle=line;fillColor=#f8cecc;strokeColor=#b85450;entryX=0;entryY=0.5;entryDx=0;entryDy=0;" parent="WIyWlLk6GJQsqaUBKTNV-1" source="GHtbHk_-lFLC-_fpbAAs-62" target="GHtbHk_-lFLC-_fpbAAs-83" edge="1">
          <mxGeometry relative="1" as="geometry">
            <mxPoint x="362.99999999999983" y="1885.0500000000002" as="sourcePoint" />
            <mxPoint x="405" y="1840" as="targetPoint" />
            <Array as="points">
              <mxPoint x="360" y="2013" />
              <mxPoint x="360" y="1765" />
            </Array>
          </mxGeometry>
        </mxCell>
        <mxCell id="A1pyDdMk8up2wRGtz6jO-8" value="No" style="edgeLabel;html=1;align=center;verticalAlign=middle;resizable=0;points=[];" parent="GHtbHk_-lFLC-_fpbAAs-90" vertex="1" connectable="0">
          <mxGeometry x="-0.9036" y="1" relative="1" as="geometry">
            <mxPoint x="-5" y="8" as="offset" />
          </mxGeometry>
        </mxCell>
        <mxCell id="GHtbHk_-lFLC-_fpbAAs-92" style="edgeStyle=orthogonalEdgeStyle;rounded=0;orthogonalLoop=1;jettySize=auto;html=1;fillColor=#f8cecc;strokeColor=#b85450;jumpStyle=line;entryX=0;entryY=0.5;entryDx=0;entryDy=0;" parent="WIyWlLk6GJQsqaUBKTNV-1" source="GHtbHk_-lFLC-_fpbAAs-64" target="GHtbHk_-lFLC-_fpbAAs-83" edge="1">
          <mxGeometry relative="1" as="geometry">
            <mxPoint x="362.99999999999983" y="1960.0500000000002" as="sourcePoint" />
            <mxPoint x="405" y="1840" as="targetPoint" />
            <Array as="points">
              <mxPoint x="360" y="2083" />
              <mxPoint x="360" y="1765" />
            </Array>
          </mxGeometry>
        </mxCell>
        <mxCell id="A1pyDdMk8up2wRGtz6jO-9" value="No" style="edgeLabel;html=1;align=center;verticalAlign=middle;resizable=0;points=[];" parent="GHtbHk_-lFLC-_fpbAAs-92" vertex="1" connectable="0">
          <mxGeometry x="-0.9596" y="-1" relative="1" as="geometry">
            <mxPoint x="2" y="6" as="offset" />
          </mxGeometry>
        </mxCell>
        <mxCell id="GHtbHk_-lFLC-_fpbAAs-104" style="edgeStyle=orthogonalEdgeStyle;rounded=0;orthogonalLoop=1;jettySize=auto;html=1;jumpStyle=line;fillColor=#f8cecc;strokeColor=#b85450;entryX=0;entryY=0.5;entryDx=0;entryDy=0;exitX=1;exitY=0.5;exitDx=0;exitDy=0;" parent="WIyWlLk6GJQsqaUBKTNV-1" source="GHtbHk_-lFLC-_fpbAAs-76" target="GHtbHk_-lFLC-_fpbAAs-83" edge="1">
          <mxGeometry relative="1" as="geometry">
            <mxPoint x="405" y="1840" as="targetPoint" />
            <Array as="points">
              <mxPoint x="360" y="2170" />
              <mxPoint x="360" y="1765" />
            </Array>
          </mxGeometry>
        </mxCell>
        <mxCell id="A1pyDdMk8up2wRGtz6jO-10" value="Yes" style="edgeLabel;html=1;align=center;verticalAlign=middle;resizable=0;points=[];" parent="GHtbHk_-lFLC-_fpbAAs-104" vertex="1" connectable="0">
          <mxGeometry x="-0.957" y="-2" relative="1" as="geometry">
            <mxPoint y="8" as="offset" />
          </mxGeometry>
        </mxCell>
      </root>
    </mxGraphModel>
  </diagram>
</mxfile>
